# File created by Blade
# Date/Time:  Thu Jan 22 16:52:56 2015
# Frame Rate: 120.000 fps
#------------------------------------------------------
:FULLY-SPECIFIED
:DEGREES
1707
root 3.199347 3.506731 -0.170511 -30.990665 4.506398 -5.535647
RightUpLeg -38.523929 -37.715859 -32.440056
RightLeg 0.201926 -0.000000 -0.000000
RightFoot 2.741513 -30.263074 31.502706
RightToeBase 6.339268 -0.000000 -0.000000
LeftUpLeg -57.911865 24.406252 14.658231
LeftLeg 2.526033 -0.000000 -0.000000
LeftFoot 10.348277 28.433378 -33.782318
LeftToeBase -5.342320 -0.000000 0.000000
Spine 71.622153 10.207352 -24.179169
RightShoulder -3.797663 57.044461 -68.216906
RightArm -13.260241 13.083537 34.791256
RightForeArm -5.481331 -0.000000 31.786544
RightHand 3.769842 -0.000000 -9.402920
RightHandThumb1 -24.326973 -0.000000 -32.862282
LeftShoulder 13.457571 -29.308335 47.242565
LeftArm 12.195296 -37.943426 -54.590602
LeftForeArm 42.055373 -0.000000 28.956710
LeftHand -25.442494 -0.000000 11.974507
LeftHandThumb1 -26.253704 0.000000 33.147579
Head -4.745818 25.135644 -61.869289
1708
root 3.199767 3.508004 -0.167790 -30.987030 4.510035 -5.616001
RightUpLeg -38.476613 -37.753177 -32.403419
RightLeg 0.193610 -0.000000 -0.000000
RightFoot 2.714523 -30.316534 31.490392
RightToeBase 6.440090 -0.000000 -0.000000
LeftUpLeg -57.936368 24.361814 14.731541
LeftLeg 2.528406 -0.000000 -0.000000
LeftFoot 10.339757 28.461578 -33.804203
LeftToeBase -5.100987 -0.000000 0.000000
Spine 71.524755 10.365149 -24.265938
RightShoulder -3.991319 56.904980 -68.832140
RightArm -12.775570 13.588135 34.746142
RightForeArm -5.952147 -0.000000 32.336746
RightHand 3.660419 -0.000000 -9.444888
RightHandThumb1 -24.326973 -0.000000 -32.862282
LeftShoulder 13.409027 -29.493790 47.165469
LeftArm 12.363078 -37.973257 -54.680103
LeftForeArm 42.095466 -0.000000 28.949181
LeftHand -25.788861 -0.000000 12.119937
LeftHandThumb1 -26.253704 0.000000 33.147579
Head -4.385332 25.428387 -61.915866
1709
root 3.200376 3.504847 -0.165122 -30.978166 4.512441 -5.731352
RightUpLeg -38.448085 -37.833601 -32.315382
RightLeg 0.192118 -0.000000 -0.000000
RightFoot 2.698586 -30.342938 31.533974
RightToeBase 6.422077 -0.000000 -0.000000
LeftUpLeg -57.988046 24.286433 14.853448
LeftLeg 2.559588 -0.000000 -0.000000
LeftFoot 10.316207 28.479759 -33.838282
LeftToeBase -5.022618 -0.000000 0.000000
Spine 71.424658 10.485125 -24.301439
RightShoulder -4.135566 56.796098 -69.444117
RightArm -12.313573 14.128937 34.667029
RightForeArm -6.358107 -0.000000 32.878919
RightHand 3.558003 -0.000000 -9.394565
RightHandThumb1 -24.326973 -0.000000 -32.862282
LeftShoulder 13.440983 -29.659103 47.060409
LeftArm 12.461676 -38.169966 -54.771513
LeftForeArm 42.370347 -0.000000 29.046417
LeftHand -26.053247 -0.000000 11.945905
LeftHandThumb1 -26.253704 0.000000 33.147579
Head -3.984805 25.867355 -61.960757
1710
root 3.199329 3.504499 -0.163036 -30.962515 4.519446 -5.818821
RightUpLeg -38.416120 -37.879511 -32.266269
RightLeg 0.190257 -0.000000 -0.000000
RightFoot 2.668362 -30.381260 31.593448
RightToeBase 6.385336 -0.000000 -0.000000
LeftUpLeg -58.015086 24.210591 14.963495
LeftLeg 2.564710 -0.000000 -0.000000
LeftFoot 10.310061 28.499827 -33.835979
LeftToeBase -4.862810 -0.000000 0.000000
Spine 71.324988 10.649066 -24.344682
RightShoulder -4.352683 56.561380 -70.060162
RightArm -11.715837 14.757023 34.659108
RightForeArm -6.654126 -0.000000 33.443421
RightHand 3.436196 0.000000 -9.278972
RightHandThumb1 -24.326973 -0.000000 -32.862282
LeftShoulder 13.447828 -29.860003 46.972962
LeftArm 12.604290 -38.224291 -54.833200
LeftForeArm 42.537424 -0.000000 29.055184
LeftHand -26.285236 -0.000000 11.799746
LeftHandThumb1 -26.253704 0.000000 33.147579
Head -3.539556 26.211273 -61.925263
1711
root 3.200263 3.506659 -0.160489 -30.974622 4.537612 -5.887623
RightUpLeg -38.359676 -37.926831 -32.244208
RightLeg 0.184824 -0.000000 -0.000000
RightFoot 2.646090 -30.406204 31.623204
RightToeBase 6.427034 -0.000000 -0.000000
LeftUpLeg -58.019113 24.143078 15.034837
LeftLeg 2.572217 -0.000000 -0.000000
LeftFoot 10.324472 28.475692 -33.814225
LeftToeBase -4.796724 -0.000000 0.000000
Spine 71.264205 10.832834 -24.428716
RightShoulder -4.537307 56.372876 -70.622573
RightArm -11.110143 15.379997 34.625766
RightForeArm -6.902091 -0.000000 34.013529
RightHand 3.358216 -0.000000 -9.287835
RightHandThumb1 -24.326973 -0.000000 -32.862282
LeftShoulder 13.463988 -30.064231 46.914204
LeftArm 12.646773 -38.261934 -54.791192
LeftForeArm 42.517493 -0.000000 29.105388
LeftHand -26.443205 -0.000000 11.370019
LeftHandThumb1 -26.253704 0.000000 33.147579
Head -3.071418 26.713158 -61.815859
1712
root 3.202217 3.507430 -0.158498 -30.970685 4.580198 -5.953558
RightUpLeg -38.306848 -37.996040 -32.244105
RightLeg 0.189170 -0.000000 -0.000000
RightFoot 2.641302 -30.428374 31.633771
RightToeBase 6.422936 -0.000000 -0.000000
LeftUpLeg -58.042964 24.049819 15.086028
LeftLeg 2.570010 -0.000000 -0.000000
LeftFoot 10.345082 28.463028 -33.778060
LeftToeBase -4.695211 -0.000000 0.000000
Spine 71.204544 10.999668 -24.518031
RightShoulder -4.758173 56.165789 -71.212711
RightArm -10.471601 16.056266 34.619363
RightForeArm -7.216986 -0.000000 34.599033
RightHand 3.219561 -0.000000 -9.246396
RightHandThumb1 -24.326973 -0.000000 -32.862282
LeftShoulder 13.418406 -30.226140 46.906448
LeftArm 12.783907 -38.267052 -54.819532
LeftForeArm 42.635061 -0.000000 29.109538
LeftHand -26.428566 -0.000000 10.746029
LeftHandThumb1 -26.253704 0.000000 33.147579
Head -2.695229 27.055534 -61.761370
1713
root 3.204085 3.508638 -0.155874 -30.959562 4.627334 -6.011463
RightUpLeg -38.262561 -38.066355 -32.253305
RightLeg 0.201146 -0.000000 -0.000000
RightFoot 2.625095 -30.441544 31.672668
RightToeBase 6.404555 -0.000000 -0.000000
LeftUpLeg -58.076795 23.962139 15.123355
LeftLeg 2.580339 -0.000000 -0.000000
LeftFoot 10.349362 28.435964 -33.782319
LeftToeBase -4.663134 -0.000000 0.000000
Spine 71.161661 11.176209 -24.576097
RightShoulder -5.037426 55.906926 -71.865939
RightArm -9.831528 16.770213 34.642581
RightForeArm -7.512997 -0.000000 35.237029
RightHand 3.021132 -0.000000 -9.097628
RightHandThumb1 -24.326973 -0.000000 -32.862282
LeftShoulder 13.343547 -30.444896 46.869488
LeftArm 12.975849 -38.214342 -54.864829
LeftForeArm 42.800566 -0.000000 29.069564
LeftHand -26.431002 -0.000000 10.090277
LeftHandThumb1 -26.253704 0.000000 33.147579
Head -2.282077 27.465677 -61.679053
1714
root 3.205966 3.508369 -0.153360 -30.953562 4.689506 -6.071207
RightUpLeg -38.223117 -38.175530 -32.245948
RightLeg 0.203890 -0.000000 -0.000000
RightFoot 2.665687 -30.434697 31.640070
RightToeBase 6.406113 -0.000000 -0.000000
LeftUpLeg -58.114266 23.867500 15.139529
LeftLeg 2.577548 -0.000000 -0.000000
LeftFoot 10.375467 28.418137 -33.764391
LeftToeBase -4.634320 -0.000000 0.000000
Spine 71.127723 11.346531 -24.632793
RightShoulder -5.300616 55.718430 -72.470261
RightArm -9.176903 17.476892 34.648469
RightForeArm -7.823193 -0.000000 35.876754
RightHand 2.902398 -0.000000 -9.055755
RightHandThumb1 -24.326973 -0.000000 -32.862282
LeftShoulder 13.276619 -30.616483 46.866391
LeftArm 13.149431 -38.070912 -54.872254
LeftForeArm 42.772216 -0.000000 29.028996
LeftHand -26.501359 -0.000000 9.481425
LeftHandThumb1 -26.253704 0.000000 33.147579
Head -1.792579 27.992516 -61.535973
1715
root 3.207925 3.509040 -0.150671 -30.943310 4.746529 -6.136837
RightUpLeg -38.154508 -38.237927 -32.272971
RightLeg 0.203459 -0.000000 -0.000000
RightFoot 2.673869 -30.458486 31.608028
RightToeBase 6.445992 -0.000000 -0.000000
LeftUpLeg -58.140435 23.766135 15.179584
LeftLeg 2.563757 -0.000000 -0.000000
LeftFoot 10.408513 28.406581 -33.731957
LeftToeBase -4.994246 -0.000000 0.000000
Spine 71.107253 11.518052 -24.634661
RightShoulder -5.541860 55.478765 -73.113124
RightArm -8.561294 18.215547 34.646992
RightForeArm -8.148880 -0.000000 36.552478
RightHand 2.718540 0.000000 -8.874533
RightHandThumb1 -24.326973 -0.000000 -32.862282
LeftShoulder 13.232422 -30.795779 46.829680
LeftArm 13.371681 -37.977249 -54.922363
LeftForeArm 42.690727 -0.000000 28.944074
LeftHand -26.488629 0.000000 8.947301
LeftHandThumb1 -26.253704 0.000000 33.147579
Head -1.290121 28.407155 -61.419355
1716
root 3.209974 3.509384 -0.146767 -30.949583 4.797671 -6.201857
RightUpLeg -38.055885 -38.266838 -32.328618
RightLeg 0.198487 -0.000000 -0.000000
RightFoot 2.668519 -30.461005 31.642468
RightToeBase 6.653517 -0.000000 -0.000000
LeftUpLeg -58.155294 23.678561 15.212585
LeftLeg 2.553728 -0.000000 -0.000000
LeftFoot 10.400766 28.397574 -33.740706
LeftToeBase -4.928858 -0.000000 0.000000
Spine 71.117985 11.705815 -24.629359
RightShoulder -5.860097 55.168553 -73.756148
RightArm -7.789081 18.970107 34.688814
RightForeArm -8.493291 -0.000000 37.199024
RightHand 2.488212 -0.000000 -8.726233
RightHandThumb1 -24.326973 -0.000000 -32.862282
LeftShoulder 13.094274 -30.939247 46.881653
LeftArm 13.695746 -37.855130 -55.107615
LeftForeArm 42.811791 -0.000000 28.864408
LeftHand -26.587909 0.000000 8.534896
LeftHandThumb1 -26.253704 0.000000 33.147579
Head -0.758563 28.915480 -61.232924
